HIERARCHY
ROOT Hips
{
  OFFSET 0.000000 0.000000 0.000000
  CHANNELS 6 Xposition Yposition Zposition Xrotation Yrotation Zrotation
  JOINT Spine
  {
    OFFSET 1.388230 -22.849755 -8.157144
    CHANNELS 3 Xrotation Yrotation Zrotation
    JOINT Chest
    {
      OFFSET 1.388230 -22.849755 -8.157144
      CHANNELS 3 Xrotation Yrotation Zrotation
      JOINT Neck
      {
        OFFSET 0.773124 -16.996889 -7.380814
        CHANNELS 3 Xrotation Yrotation Zrotation
        JOINT Head
        {
          OFFSET 0.829046 3.305784 -11.271278
          CHANNELS 3 Xrotation Yrotation Zrotation
          End Site
          {
            OFFSET 0.0 5.0 2.0
          }
        }
      }
      JOINT LeftShoulder
      {
        OFFSET 17.248308 1.208605 -0.261267
        CHANNELS 3 Xrotation Yrotation Zrotation
        JOINT LeftArm
        {
          OFFSET 7.635523 21.435821 1.774202
          CHANNELS 3 Xrotation Yrotation Zrotation
          JOINT LeftForeArm
          {
            OFFSET 7.643843 21.327462 -9.147581
            CHANNELS 3 Xrotation Yrotation Zrotation
            JOINT LeftHand
            {
              OFFSET 0.209327 5.896815 -2.586139
              CHANNELS 3 Xrotation Yrotation Zrotation
              End Site
              {
                OFFSET -3.0 0.0 2.0
              }
            }
          }
        }
      }
      JOINT RightShoulder
      {
        OFFSET -17.248308 -1.208605 0.261267
        CHANNELS 3 Xrotation Yrotation Zrotation
        JOINT RightArm
        {
          OFFSET -12.133127 21.363330 5.693170
          CHANNELS 3 Xrotation Yrotation Zrotation
          JOINT RightForeArm
          {
            OFFSET -7.740244 22.047532 -5.230031
            CHANNELS 3 Xrotation Yrotation Zrotation
            JOINT RightHand
            {
              OFFSET -0.130476 6.134634 -1.903036
              CHANNELS 3 Xrotation Yrotation Zrotation
              End Site
              {
                OFFSET 3.0 0.0 2.0
              }
            }
          }
        }
      }
    }
  }
  JOINT LeftUpLeg
  {
    OFFSET 11.699587 0.675443 -0.599665
    CHANNELS 3 Xrotation Yrotation Zrotation
    JOINT LeftLeg
    {
      OFFSET -6.527727 38.483662 2.000000
      CHANNELS 3 Xrotation Yrotation Zrotation
      JOINT LeftFoot
      {
        OFFSET 2.208129 30.668512 15.986089
        CHANNELS 3 Xrotation Yrotation Zrotation
        JOINT LeftToeBase
        {
          OFFSET 1.893679 11.141187 -10.580111
          CHANNELS 3 Xrotation Yrotation Zrotation
          End Site
          {
            OFFSET 0.0 -1.0 3.0
          }
        }
      }
    }
  }
  JOINT RightUpLeg
  {
    OFFSET -11.699587 -0.675443 0.599665
    CHANNELS 3 Xrotation Yrotation Zrotation
    JOINT RightLeg
    {
      OFFSET -1.173808 37.981520 2.000000
      CHANNELS 3 Xrotation Yrotation Zrotation
      JOINT RightFoot
      {
        OFFSET -5.080520 34.540695 11.520179
        CHANNELS 3 Xrotation Yrotation Zrotation
        JOINT RightToeBase
        {
          OFFSET -7.496841 8.997232 -11.583195
          CHANNELS 3 Xrotation Yrotation Zrotation
          End Site
          {
            OFFSET 0.0 -1.0 3.0
          }
        }
      }
    }
  }
}
MOTION
Frames: 6
Frame Time: 0.066260
0.000000 0.000000 0.000000 0.279667 -3.914498 3.133535 -0.942025 -0.382104 0.935216 0.054952 0.081963 3.833041 -0.520024 4.828293 1.350718 0.000000 0.000000 0.000000 -4.223800 2.351858 -21.870242 1.800669 1.874179 6.037482 -2.306460 2.715694 5.675713 0.000000 0.000000 0.000000 -18.622129 -12.543660 56.570551 -31.200585 -1.081934 19.478191 -12.828318 -2.288854 -4.572253 0.000000 0.000000 0.000000 -0.467175 0.018954 -2.049023 1.418608 -1.208250 2.055105 85.848427 -9.634860 -13.712196 0.000000 0.000000 0.000000 -17.000548 0.447358 10.112131 0.882335 0.499071 -1.076443 87.156170 39.496985 18.360347 0.000000 0.000000 0.000000
0.000000 0.000000 0.000000 0.286704 -4.147286 3.128488 -3.102513 -0.487832 0.922208 0.072218 -0.128774 4.518133 0.736927 5.485483 1.696689 0.000000 0.000000 0.000000 -3.999879 2.288904 -21.127807 0.377430 1.955214 4.846029 -3.498291 2.407084 4.788056 0.000000 0.000000 0.000000 -22.245190 -12.526813 53.955782 -24.151731 -6.793190 4.554418 -10.084737 -3.972891 -9.125961 0.000000 0.000000 0.000000 -0.073995 0.169541 -3.529604 0.634830 -0.630958 1.106652 85.136233 -9.679663 -16.379192 0.000000 0.000000 0.000000 -14.790196 0.295847 9.806985 1.361283 0.823557 -1.789576 87.815653 39.602349 19.059053 0.000000 0.000000 0.000000
0.000000 0.000000 0.000000 0.291916 -4.319548 3.124022 -5.936739 -0.640837 0.957006 0.110996 -1.447865 3.892418 1.807165 4.925072 1.658348 0.000000 0.000000 0.000000 -0.346973 1.607737 -19.668182 4.957694 -0.386427 3.600068 0.099380 1.699630 3.886762 0.000000 0.000000 0.000000 -15.337313 -11.882750 46.607345 -15.794452 -5.558871 0.509383 -3.390302 -2.877711 -8.153803 0.000000 0.000000 0.000000 -1.770952 -0.133075 -4.602381 -1.468141 0.049787 0.109346 83.347563 -9.749594 -15.397620 0.000000 0.000000 0.000000 -15.825951 0.355984 9.841561 1.577273 0.962095 -2.081941 86.663988 39.412426 17.748702 0.000000 0.000000 0.000000
0.000000 0.000000 0.000000 0.286493 -4.296662 2.777160 -6.587167 -0.621805 0.782110 0.074997 -0.906575 1.594024 2.189813 2.420167 0.920985 0.000000 0.000000 0.000000 0.160440 1.149686 -14.888673 5.332443 -1.332517 1.463145 0.177774 0.521357 1.207768 0.000000 0.000000 0.000000 -7.396764 -8.371849 26.496957 -6.270718 -0.457727 5.965669 -1.762663 0.201418 0.730887 0.000000 0.000000 0.000000 -1.743027 -0.126418 -4.623081 -0.888754 0.390416 -0.639064 82.971362 -9.757316 -15.077403 0.000000 0.000000 0.000000 -11.373832 0.098258 9.603194 1.936634 1.404941 -3.156819 85.156268 39.155193 16.898746 0.000000 0.000000 0.000000
0.000000 0.000000 0.000000 0.280475 -4.216115 2.546356 -6.220717 -0.511176 0.472204 0.109159 -1.601560 -2.803444 2.498071 0.014366 0.189509 0.000000 0.000000 0.000000 0.418557 0.844142 -11.808069 5.676922 -1.537445 1.244373 1.279013 0.092592 0.323911 0.000000 0.000000 0.000000 -3.235800 -4.616131 13.015830 -0.665067 3.591158 16.356290 -4.469582 2.040577 6.046136 0.000000 0.000000 0.000000 -1.819845 -0.145994 -4.530463 -1.487903 0.398962 -0.579756 84.084617 -9.696408 -14.243869 0.000000 0.000000 0.000000 -11.803063 0.110158 9.387447 2.153065 1.508167 -3.335873 85.964209 39.291287 17.171256 0.000000 0.000000 0.000000
0.000000 0.000000 0.000000 0.275532 -4.229716 2.164135 -5.763883 -0.395982 0.171719 0.141513 -1.902173 -5.306101 3.100623 -1.526258 -0.263205 0.000000 0.000000 0.000000 0.255833 0.795553 -10.711126 5.734549 -1.577874 1.190491 1.630381 0.056324 0.269951 0.000000 0.000000 0.000000 -2.627541 -4.029481 11.426467 0.205146 4.194576 18.379737 -4.535409 3.008280 8.768802 0.000000 0.000000 0.000000 -0.087275 0.204204 -4.249897 -0.917874 0.407045 -0.667956 83.378457 -9.739270 -15.025308 0.000000 0.000000 0.000000 -6.304710 -0.173894 8.362267 0.798847 1.098656 -2.861687 85.283311 39.143601 15.736685 0.000000 0.000000 0.000000
